<svg xmlns="http://www.w3.org/2000/svg" viewBox="0 0 665.06 263.45"><defs><style>.cls-1{fill:#c2b4d9;}.cls-2,.cls-4,.cls-5,.cls-6,.cls-7{fill:#523c90;}.cls-3{fill:none;stroke:#233f93;stroke-width:4px;}.cls-3,.cls-4,.cls-5,.cls-6,.cls-7{stroke-miterlimit:10;}.cls-4,.cls-5,.cls-6,.cls-7{stroke:#523c90;}.cls-5{stroke-width:1.24px;}.cls-6{stroke-width:0.98px;}.cls-7{stroke-width:0.94px;}</style></defs><title>PRiSM_purple_1</title><g id="Layer_2" data-name="Layer 2"><g id="Layer_1-2" data-name="Layer 1"><rect class="cls-1" x="184.73" y="125.12" width="3.5" height="89.56" transform="translate(-50.22 257.15) rotate(-62.57)"/><rect class="cls-1" x="-1.04" y="168.4" width="84.39" height="3.5" transform="translate(-74.82 39.02) rotate(-27.89)"/><rect class="cls-1" x="112.91" y="79.08" width="3.5" height="222.36" transform="translate(-75.93 304.38) rotate(-89.84)"/><rect class="cls-1" x="38.62" y="50.45" width="3.5" height="86.44" transform="translate(-61.35 86.04) rotate(-62.4)"/><rect class="cls-1" x="109.7" y="5.07" width="3.5" height="82.79" transform="translate(-0.36 0.86) rotate(-0.44)"/><rect class="cls-1" x="142.86" y="92.1" width="89.23" height="3.5" transform="translate(-22.14 97.7) rotate(-27.64)"/><rect class="cls-1" x="109.7" y="170.07" width="3.5" height="86.79" transform="translate(-1.57 0.83) rotate(-0.42)"/><polygon class="cls-1" points="224.35 191.5 111.17 8.97 4.99 190.83 1.97 189.06 111.08 2.18 227.32 189.65 224.35 191.5"/><path class="cls-2" d="M111.43,263.45,0,72.9h227.6ZM6.12,76.4,111.5,256.62,221.39,76.4Z"/><path class="cls-1" d="M111.11,171.74l-32.23-57.5h67.63ZM80.45,115.16l30.7,54.77,33.72-54.77Z"/><line x1="146.33" y1="149.18" x2="78.42" y2="149.24"/><rect class="cls-1" x="78.42" y="147.46" width="67.91" height="3.5"/><polygon class="cls-1" points="79.95 151.04 76.89 149.35 111.86 85.78 148.29 149.21 145.25 150.95 111.92 92.92 79.95 151.04"/><path class="cls-1" d="M111,174.72l-34.37-23.6,0-38.75L111.9,85.88l36.83,27.49-.2,37.8ZM80.16,149.27l31,21.26L145,149.22l.18-34.11L111.91,90.25,80.13,114.12Z"/><path class="cls-2" d="M111.45,263.4.12,191.85,0,72.7,111.1,0,228,72.17V191.5ZM3.62,189.94l107.87,69.33,113-69.72V74.12l-113.32-70L3.5,74.59Z"/><path class="cls-3" d="M111.46,260.33"/></g><g id="Layer_2-2" data-name="Layer 2"><path class="cls-4" d="M265.73,142.91v48.41H247.87V72.12h20.24q14.87,0,22.46,2.08a30.08,30.08,0,0,1,13.49,7.87q10.19,10,10.2,25.32,0,16.37-10.89,25.94T274,142.91Zm0-16.68h6.67q24.61,0,24.61-19.07,0-18.45-25.37-18.45h-5.9Z"/><path class="cls-4" d="M372.75,140.52l36.64,50.8H387.55l-33.81-48.79h-3.22v48.79H332.66V72.12h20.93q23.46,0,33.88,8.88Q399,90.88,399,107.09a34,34,0,0,1-7.21,21.77A32.08,32.08,0,0,1,372.75,140.52Zm-22.23-13.66h5.67q25.37,0,25.37-19.53,0-18.3-24.68-18.3h-6.36Z"/><path class="cls-5" d="M417,100.61a9.59,9.59,0,0,1,2.62-6.73,8.43,8.43,0,0,1,12.62,0,9.53,9.53,0,0,1,2.62,6.8,9.76,9.76,0,0,1-2.62,6.87,8.13,8.13,0,0,1-6.28,2.84,8.31,8.31,0,0,1-6.34-2.84A9.84,9.84,0,0,1,417,100.61Zm15.79,26.74v64.3H419.07v-64.3Z"/><path class="cls-6" d="M520,92.39l-14.49,8.33q-4.06-6.84-7.74-8.93a21.11,21.11,0,0,0-22.23,1.71,12.54,12.54,0,0,0-4.91,10.12q0,8.41,12.88,13.54l11.81,4.69q14.41,5.66,21.08,13.8t6.67,20q0,15.85-10.89,26.19T485,192.24q-15.41,0-25.45-8.85-9.89-8.85-12.34-24.93l18.09-3.87q1.23,10.12,4.29,14,5.52,7.44,16.1,7.44a19,19,0,0,0,13.88-5.43,18.5,18.5,0,0,0,5.52-13.77,18.8,18.8,0,0,0-1-6.14,15.49,15.49,0,0,0-3-5.13,23.73,23.73,0,0,0-5.25-4.39,51.22,51.22,0,0,0-7.67-3.91l-11.42-4.61q-24.3-10-24.3-29.17,0-12.95,10.2-21.65T488,73Q508.5,73,520,92.39Z"/><path class="cls-7" d="M534.47,191.43,559.39,77.12,600,159.75,642.1,77.12l22.38,114.31H646.17l-11.42-64.18-35,69.07-34-69.14-12.73,64.25Z"/></g></g></svg>