<?xml version="1.0" encoding="UTF-8" standalone="no"?>
<!-- Created with Inkscape (http://www.inkscape.org/) -->

<svg
   xmlns:dc="http://purl.org/dc/elements/1.1/"
   xmlns:cc="http://creativecommons.org/ns#"
   xmlns:rdf="http://www.w3.org/1999/02/22-rdf-syntax-ns#"
   xmlns:svg="http://www.w3.org/2000/svg"
   xmlns="http://www.w3.org/2000/svg"
   xmlns:sodipodi="http://sodipodi.sourceforge.net/DTD/sodipodi-0.dtd"
   xmlns:inkscape="http://www.inkscape.org/namespaces/inkscape"
   width="210mm"
   height="297mm"
   viewBox="0 0 744.09448819 1052.3622047"
   id="svg2"
   version="1.1"
   inkscape:version="0.91 r13725"
   sodipodi:docname="audience.svg">
  <defs
     id="defs4">
    <inkscape:perspective
       sodipodi:type="inkscape:persp3d"
       inkscape:vp_x="-105.71429 : 563.32396 : 1"
       inkscape:vp_y="0 : 1000 : 0"
       inkscape:vp_z="892.66594 : 577.60967 : 1"
       inkscape:persp3d-origin="372.04724 : 350.7874 : 1"
       id="perspective3354" />
  </defs>
  <sodipodi:namedview
     id="base"
     pagecolor="#ffffff"
     bordercolor="#666666"
     borderopacity="1.0"
     inkscape:pageopacity="0.0"
     inkscape:pageshadow="2"
     inkscape:zoom="0.83731903"
     inkscape:cx="500.49438"
     inkscape:cy="492.52478"
     inkscape:document-units="px"
     inkscape:current-layer="layer1"
     showgrid="false"
     showguides="true"
     inkscape:guide-bbox="true"
     inkscape:window-width="1920"
     inkscape:window-height="1171"
     inkscape:window-x="1200"
     inkscape:window-y="360"
     inkscape:window-maximized="1">
    <sodipodi:guide
       position="-1006.0606,1401.5152"
       orientation="0,1"
       id="guide4696" />
    <sodipodi:guide
       position="-145.3125,378.12501"
       orientation="0,1"
       id="guide5008" />
    <sodipodi:guide
       position="-181.25,340.62501"
       orientation="0,1"
       id="guide5014" />
    <inkscape:grid
       type="xygrid"
       id="grid5016" />
    <sodipodi:guide
       position="-92.187501,303.12501"
       orientation="0,1"
       id="guide5018" />
    <sodipodi:guide
       position="-175,875.00002"
       orientation="0,1"
       id="guide5833" />
    <sodipodi:guide
       position="-84.375001,267.18751"
       orientation="0,1"
       id="guide5835" />
  </sodipodi:namedview>
  <metadata
     id="metadata7">
    <rdf:RDF>
      <cc:Work
         rdf:about="">
        <dc:format>image/svg+xml</dc:format>
        <dc:type
           rdf:resource="http://purl.org/dc/dcmitype/StillImage" />
        <dc:title></dc:title>
      </cc:Work>
    </rdf:RDF>
  </metadata>
  <g
     inkscape:label="Layer 1"
     inkscape:groupmode="layer"
     id="layer1">
    <rect
       style="display:inline;fill:#000000;fill-opacity:1;stroke:none;stroke-opacity:1"
       id="rect5052-8-1-3"
       width="740.29523"
       height="709.60675"
       x="3.8447423"
       y="90.959419" />
    <rect
       style="fill:#b7b7b7;fill-opacity:1;stroke:none;stroke-opacity:1"
       id="rect5626-0-7"
       width="104.40592"
       height="166.3401"
       x="578.83948"
       y="306.68591" />
    <rect
       style="fill:#999999;fill-opacity:1;stroke:none;stroke-opacity:1"
       id="rect5626-0"
       width="80.85611"
       height="151.73369"
       x="591.17407"
       y="316.85037" />
    <path
       style="display:inline;fill:#a9d1ff;fill-opacity:1;stroke:none;stroke-opacity:1"
       id="path4664-97-3-4-6-1-4"
       sodipodi:type="arc"
       sodipodi:cx="253.26323"
       sodipodi:cy="-506.30316"
       sodipodi:rx="63.899433"
       sodipodi:ry="121.03616"
       sodipodi:start="0"
       sodipodi:end="3.1415927"
       d="m 317.16266,-506.30316 a 63.899433,121.03616 0 0 1 -31.94971,104.82039 63.899433,121.03616 0 0 1 -63.89944,0 63.899433,121.03616 0 0 1 -31.94971,-104.8204 l 63.89943,1e-5 z"
       transform="scale(1,-1)" />
    <rect
       style="display:inline;fill:#a9d1ff;fill-opacity:1;stroke:none;stroke-opacity:1"
       id="rect5020-5-8-5-4"
       width="343.2489"
       height="77.080544"
       x="202.67746"
       y="502.52124" />
    <path
       style="display:inline;fill:#a9d1ff;fill-opacity:1;stroke:none;stroke-opacity:1"
       id="path4664-9-3-1-5-8-9-4"
       sodipodi:type="arc"
       sodipodi:cx="378.59152"
       sodipodi:cy="-503.7869"
       sodipodi:rx="63.899433"
       sodipodi:ry="121.03616"
       sodipodi:start="0"
       sodipodi:end="3.1415927"
       d="m 442.49096,-503.7869 a 63.899433,121.03616 0 0 1 -31.94972,104.8204 63.899433,121.03616 0 0 1 -63.89944,-1e-5 63.899433,121.03616 0 0 1 -31.94971,-104.82039 l 63.89943,0 z"
       transform="scale(1,-1)" />
    <ellipse
       style="display:inline;fill:#fffa00;fill-opacity:1;stroke:none;stroke-opacity:1"
       id="path4699-4-4-1-1-0-4"
       cx="239.58878"
       cy="446.21143"
       rx="36.023468"
       ry="34.522186" />
    <path
       style="display:inline;fill:#66afff;fill-opacity:1;stroke:none;stroke-opacity:1"
       id="path4664-97-3-3-7-7"
       sodipodi:type="arc"
       sodipodi:cx="212.1476"
       sodipodi:cy="-556.91028"
       sodipodi:rx="84.599243"
       sodipodi:ry="154.51425"
       sodipodi:start="0"
       sodipodi:end="3.1415927"
       d="m 296.74684,-556.91028 a 84.599243,154.51425 0 0 1 -42.29962,133.81327 84.599243,154.51425 0 0 1 -84.59925,0 84.599243,154.51425 0 0 1 -42.29961,-133.81328 l 84.59924,1e-5 z"
       transform="scale(1,-1)" />
    <path
       style="display:inline;fill:#a9d1ff;fill-opacity:1;stroke:none;stroke-opacity:1"
       id="path4664-9-2-6-9-0-1-7-6"
       sodipodi:type="arc"
       sodipodi:cx="508.73584"
       sodipodi:cy="-502.90387"
       sodipodi:rx="63.899433"
       sodipodi:ry="121.03616"
       sodipodi:start="0"
       sodipodi:end="3.1415927"
       d="m 572.63527,-502.90387 a 63.899433,121.03616 0 0 1 -31.94971,104.82039 63.899433,121.03616 0 0 1 -63.89944,0 63.899433,121.03616 0 0 1 -31.94971,-104.8204 l 63.89943,1e-5 z"
       transform="scale(1,-1)" />
    <path
       style="display:inline;fill:#66afff;fill-opacity:1;stroke:none;stroke-opacity:1"
       id="path4664-9-3-1-4-6-3"
       sodipodi:type="arc"
       sodipodi:cx="378.78067"
       sodipodi:cy="-557.75653"
       sodipodi:rx="84.599243"
       sodipodi:ry="154.51425"
       sodipodi:start="0"
       sodipodi:end="3.1415927"
       d="m 463.37991,-557.75653 a 84.599243,154.51425 0 0 1 -42.29962,133.81327 84.599243,154.51425 0 0 1 -84.59924,-10e-6 84.599243,154.51425 0 0 1 -42.29962,-133.81327 l 84.59924,10e-6 z"
       transform="scale(1,-1)" />
    <rect
       style="display:inline;fill:#66afff;fill-opacity:1;stroke:none;stroke-opacity:1"
       id="rect5020-6-9-7-1"
       width="343.2489"
       height="77.080544"
       x="207.14497"
       y="557.64594" />
    <path
       style="display:inline;fill:#1b87ff;fill-opacity:1;stroke:none;stroke-opacity:1"
       id="path4664-97-6-3-7"
       sodipodi:type="arc"
       sodipodi:cx="160.41161"
       sodipodi:cy="-627.00104"
       sodipodi:rx="110.24901"
       sodipodi:ry="198.29327"
       sodipodi:start="0"
       sodipodi:end="3.1415927"
       d="m 270.66061,-627.00104 a 110.24901,198.29327 0 0 1 -55.1245,171.72702 110.24901,198.29327 0 0 1 -110.24901,-10e-6 110.24901,198.29327 0 0 1 -55.124502,-171.72702 l 110.249012,10e-6 z"
       transform="scale(1,-1)" />
    <ellipse
       style="display:inline;fill:#fffa00;fill-opacity:1;stroke:none;stroke-opacity:1"
       id="path4699-4-4-1-1-5-5"
       cx="556.84113"
       cy="485.7486"
       rx="47.010757"
       ry="46.148174"
       inkscape:transform-center-x="1.7694862"
       inkscape:transform-center-y="9.5562939" />
    <path
       style="display:inline;fill:#66afff;fill-opacity:1;stroke:none;stroke-opacity:1"
       id="path4664-9-2-6-9-9-6-9"
       sodipodi:type="arc"
       sodipodi:cx="549.37531"
       sodipodi:cy="-558.19788"
       sodipodi:rx="84.599243"
       sodipodi:ry="154.51425"
       sodipodi:start="0"
       sodipodi:end="3.1415927"
       d="m 633.97455,-558.19788 a 84.599243,154.51425 0 0 1 -42.29962,133.81327 84.599243,154.51425 0 0 1 -84.59925,0 84.599243,154.51425 0 0 1 -42.29962,-133.81327 l 84.59925,0 z"
       transform="scale(1,-1)" />
    <ellipse
       style="display:inline;fill:#fffa00;fill-opacity:1;stroke:none;stroke-opacity:1"
       id="path4699-4-4-1-1-6"
       cx="569.5368"
       cy="515.52307"
       rx="60.508068"
       ry="57.986385" />
    <path
       style="display:inline;fill:#1b87ff;fill-opacity:1;stroke:none;stroke-opacity:1"
       id="path4664-9-2-6-6-5-2"
       sodipodi:type="arc"
       sodipodi:cx="603.50635"
       sodipodi:cy="-628.28864"
       sodipodi:rx="110.24901"
       sodipodi:ry="198.29327"
       sodipodi:start="0"
       sodipodi:end="3.1415927"
       d="m 713.75536,-628.28864 a 110.24901,198.29327 0 0 1 -55.12451,171.72702 110.24901,198.29327 0 0 1 -110.24901,-10e-6 110.24901,198.29327 0 0 1 -55.1245,-171.72701 l 110.24901,0 z"
       transform="scale(1,-1)" />
    <path
       style="display:inline;fill:#1b87ff;fill-opacity:1;stroke:none;stroke-opacity:1"
       id="path4664-9-3-4-6-1"
       sodipodi:type="arc"
       sodipodi:cx="378.72659"
       sodipodi:cy="-627.00104"
       sodipodi:rx="110.24901"
       sodipodi:ry="198.29327"
       sodipodi:start="0"
       sodipodi:end="3.1415927"
       d="m 488.9756,-627.00104 a 110.24901,198.29327 0 0 1 -55.1245,171.72702 110.24901,198.29327 0 0 1 -110.24901,-10e-6 110.24901,198.29327 0 0 1 -55.12451,-171.72702 l 110.24901,10e-6 z"
       transform="scale(1,-1)" />
    <rect
       style="display:inline;fill:#1b87ff;fill-opacity:1;stroke:none;stroke-opacity:1"
       id="rect5020-9-3-7"
       width="303.79086"
       height="77.080544"
       x="230.18614"
       y="623.68268" />
    <ellipse
       style="display:inline;fill:#fffa00;fill-opacity:1;stroke:none;stroke-opacity:1"
       id="path4699-4-4-1-8"
       cx="152.72932"
       cy="525.34753"
       rx="60.508068"
       ry="57.986385" />
    <path
       style="display:inline;fill:#416abe;fill-opacity:1;stroke:none;stroke-opacity:1"
       id="path4664-0-9-5"
       sodipodi:type="arc"
       sodipodi:cx="110.23146"
       sodipodi:cy="-700.0788"
       sodipodi:rx="135.67378"
       sodipodi:ry="242.07231"
       sodipodi:start="0"
       sodipodi:end="3.1415927"
       d="m 245.90524,-700.0788 a 135.67378,242.07231 0 0 1 -67.83689,209.64078 135.67378,242.07231 0 0 1 -135.673784,-1e-5 135.67378,242.07231 0 0 1 -67.836888,-209.64078 l 135.673782,10e-6 z"
       transform="scale(1,-1)" />
    <ellipse
       style="display:inline;fill:#fffa00;fill-opacity:1;stroke:none;stroke-opacity:1"
       id="path4699-4-4-7"
       cx="107.51457"
       cy="591.43561"
       rx="79.867981"
       ry="77.635353" />
    <path
       style="display:inline;fill:#416abe;fill-opacity:1;stroke:none;stroke-opacity:1"
       id="path4664-9-8-8-4"
       sodipodi:type="arc"
       sodipodi:cx="378.89236"
       sodipodi:cy="-700.0788"
       sodipodi:rx="135.67378"
       sodipodi:ry="242.07231"
       sodipodi:start="0"
       sodipodi:end="3.1415927"
       d="m 514.56615,-700.0788 a 135.67378,242.07231 0 0 1 -67.8369,209.64078 135.67378,242.07231 0 0 1 -135.67378,-1e-5 135.67378,242.07231 0 0 1 -67.83689,-209.64078 l 135.67378,10e-6 z"
       transform="scale(1,-1)" />
    <path
       style="display:inline;fill:#416abe;fill-opacity:1;stroke:none;stroke-opacity:1"
       id="path4664-9-2-7-1-1"
       sodipodi:type="arc"
       sodipodi:cx="650.23993"
       sodipodi:cy="-700.0788"
       sodipodi:rx="135.67378"
       sodipodi:ry="242.07231"
       sodipodi:start="0"
       sodipodi:end="3.1415927"
       d="m 785.91371,-700.0788 a 135.67378,242.07231 0 0 1 -67.83689,209.64078 135.67378,242.07231 0 0 1 -135.67379,-1e-5 135.67378,242.07231 0 0 1 -67.83688,-209.64078 l 135.67378,10e-6 z"
       transform="scale(1,-1)" />
    <ellipse
       style="display:inline;fill:#fffa00;fill-opacity:1;stroke:none;stroke-opacity:1"
       id="path4699-0-2-2-8"
       cx="375.19324"
       cy="596.38361"
       rx="79.867981"
       ry="77.635353" />
    <ellipse
       style="display:inline;fill:#fffa00;fill-opacity:1;stroke:none;stroke-opacity:1"
       id="path4699-0-6-7-9-5"
       cx="650.22607"
       cy="600.90112"
       rx="79.867981"
       ry="77.635353" />
    <rect
       style="display:inline;fill:#000000;fill-opacity:1;stroke:none;stroke-opacity:1"
       id="rect4889-2-3-9"
       width="69.1073"
       height="5.8788843"
       x="339.21484"
       y="620.3642"
       ry="0" />
    <ellipse
       style="display:inline;fill:#000000;fill-opacity:1;stroke:none;stroke-opacity:1"
       id="path4895-2-9-7"
       cx="82.428833"
       cy="571.30969"
       rx="10.424045"
       ry="9.9919214" />
    <ellipse
       style="display:inline;fill:#000000;fill-opacity:1;stroke:none;stroke-opacity:1"
       id="path4895-6-6-0-5"
       cx="127.84792"
       cy="570.59595"
       rx="10.424045"
       ry="9.9919214" />
    <ellipse
       style="display:inline;fill:#000000;fill-opacity:1;stroke:none;stroke-opacity:1"
       id="path4895-6-1-1-8-3"
       cx="351.39667"
       cy="573.72302"
       rx="10.424045"
       ry="9.9919214" />
    <ellipse
       style="display:inline;fill:#000000;fill-opacity:1;stroke:none;stroke-opacity:1"
       id="path4895-6-1-5-0-8-8"
       cx="395.71841"
       cy="573.99524"
       rx="10.424045"
       ry="9.9919214" />
    <ellipse
       style="display:inline;fill:#000000;fill-opacity:1;stroke:none;stroke-opacity:1"
       id="path4895-6-1-5-5-6-5-8"
       cx="628.94678"
       cy="577.12231"
       rx="10.424045"
       ry="9.9919214" />
    <ellipse
       style="display:inline;fill:#000000;fill-opacity:1;stroke:none;stroke-opacity:1"
       id="path4895-6-1-5-4-1-0-3"
       cx="673.62128"
       cy="576.40857"
       rx="10.424045"
       ry="9.9919214" />
    <g
       style="display:inline"
       id="g5010-5-9-1"
       transform="matrix(0.88658115,0,0,0.84982837,1108.4528,306.23797)">
      <path
         transform="matrix(-0.99982051,0.01894594,-0.01894594,-0.99982051,0,0)"
         d="m 560.31579,-393.06699 a 37.121212,37.121212 0 0 1 -18.93771,32.36271 37.121212,37.121212 0 0 1 -37.49065,-0.65753 37.121212,37.121212 0 0 1 -17.79123,-33.00687 l 37.09838,1.30169 z"
         sodipodi:end="3.176666"
         sodipodi:start="0"
         sodipodi:ry="37.121212"
         sodipodi:rx="37.121212"
         sodipodi:cy="-393.06699"
         sodipodi:cx="523.19458"
         sodipodi:type="arc"
         id="path4872-3-7-94-6-8"
         style="display:inline;fill:#000000;fill-opacity:1;stroke:none;stroke-opacity:1" />
      <path
         transform="matrix(-0.99980963,0.01951182,-0.01839645,-0.99983077,0,0)"
         d="m 553.73556,-394.21701 a 31.242764,32.175613 0 0 1 -15.93877,28.05107 31.242764,32.175613 0 0 1 -31.5537,-0.56992 31.242764,32.175613 0 0 1 -14.97384,-28.60943 l 31.22355,1.12828 z"
         sodipodi:end="3.176666"
         sodipodi:start="0"
         sodipodi:ry="32.175613"
         sodipodi:rx="31.242764"
         sodipodi:cy="-394.21701"
         sodipodi:cx="522.4928"
         sodipodi:type="arc"
         id="path4872-3-9-3-9"
         style="display:inline;fill:#ffff00;fill-opacity:1;stroke:none;stroke-opacity:1" />
    </g>
    <g
       style="display:inline"
       id="g5010-6-0-8-6"
       transform="matrix(0.88658115,0,0,-0.84982837,563.42417,946.62751)">
      <path
         transform="matrix(-0.99982051,0.01894594,-0.01894594,-0.99982051,0,0)"
         d="m 560.31579,-393.06699 a 37.121212,37.121212 0 0 1 -18.93771,32.36271 37.121212,37.121212 0 0 1 -37.49065,-0.65753 37.121212,37.121212 0 0 1 -17.79123,-33.00687 l 37.09838,1.30169 z"
         sodipodi:end="3.176666"
         sodipodi:start="0"
         sodipodi:ry="37.121212"
         sodipodi:rx="37.121212"
         sodipodi:cy="-393.06699"
         sodipodi:cx="523.19458"
         sodipodi:type="arc"
         id="path4872-3-7-9-9-5-4"
         style="display:inline;fill:#000000;fill-opacity:1;stroke:none;stroke-opacity:1" />
      <path
         transform="matrix(-0.99980963,0.01951182,-0.01839645,-0.99983077,0,0)"
         d="m 553.73556,-394.21701 a 31.242764,32.175613 0 0 1 -15.93877,28.05107 31.242764,32.175613 0 0 1 -31.5537,-0.56992 31.242764,32.175613 0 0 1 -14.97384,-28.60943 l 31.22355,1.12828 z"
         sodipodi:end="3.176666"
         sodipodi:start="0"
         sodipodi:ry="32.175613"
         sodipodi:rx="31.242764"
         sodipodi:cy="-394.21701"
         sodipodi:cx="522.4928"
         sodipodi:type="arc"
         id="path4872-3-3-1-6-3"
         style="display:inline;fill:#ffff00;fill-opacity:1;stroke:none;stroke-opacity:1" />
    </g>
    <ellipse
       style="fill:#fffa00;fill-opacity:1;stroke:none;stroke-opacity:1"
       id="path5588-3"
       cx="104.32928"
       cy="753.54181"
       rx="93.952522"
       ry="90.057762" />
    <ellipse
       style="fill:#fffa00;fill-opacity:1;stroke:none;stroke-opacity:1"
       id="path5588-8-3"
       cx="374.79846"
       cy="751.6554"
       rx="93.952522"
       ry="90.057762" />
    <ellipse
       style="fill:#fffa00;fill-opacity:1;stroke:none;stroke-opacity:1"
       id="path5588-8-1-8"
       cx="648.61981"
       cy="752.13904"
       rx="93.952522"
       ry="90.057762" />
    <rect
       style="fill:#ffffff;fill-opacity:1;stroke:none;stroke-opacity:1"
       id="rect5620-6"
       width="741.69293"
       height="88.167534"
       x="4.1027589"
       y="800.29871" />
    <rect
       style="fill:#fffa00;fill-opacity:1;stroke:none;stroke-opacity:1"
       id="rect5622-0"
       width="99.077202"
       height="17.465748"
       x="601.42358"
       y="633.66602" />
    <rect
       style="fill:#999999;fill-opacity:1;stroke:none;stroke-opacity:1"
       id="rect5624-4"
       width="740.75433"
       height="18.084864"
       x="3.8446004"
       y="203.69456" />
    <rect
       style="fill:#000000;fill-opacity:1;stroke:none;stroke-opacity:1"
       id="rect5628-8"
       width="28.470463"
       height="4.366437"
       x="602.56256"
       y="383.43845" />
    <rect
       style="fill:#000000;fill-opacity:1;stroke:none;stroke-opacity:1"
       id="rect5789"
       width="739.55499"
       height="100.46621"
       x="4.8620725"
       y="699.3739" />
    <rect
       style="fill:#ffffff;fill-opacity:1;stroke:none;stroke-opacity:1"
       id="rect5795"
       width="40.526226"
       height="251.63499"
       x="745.39667"
       y="494.50745" />
    <rect
       style="fill:#ffffff;fill-opacity:1;stroke:none;stroke-opacity:1"
       id="rect5797"
       width="29.17745"
       height="243.18457"
       x="-26.274334"
       y="487.93497" />
    <ellipse
       style="fill:#ffff00;fill-opacity:1;stroke:none;stroke-opacity:1"
       id="path5799"
       cx="558.30383"
       cy="149.85245"
       rx="28.406748"
       ry="10.797771" />
    <ellipse
       style="fill:#ffff00;fill-opacity:1;stroke:none;stroke-opacity:1"
       id="path5799-89"
       cx="181.18004"
       cy="150.85666"
       rx="28.406748"
       ry="10.797771" />
  </g>
  <g
     inkscape:groupmode="layer"
     id="layer2"
     inkscape:label="Layer 2"
     style="display:inline" />
</svg>
