<?xml version="1.0" encoding="UTF-8" standalone="no"?>
<!-- Created with Inkscape (http://www.inkscape.org/) -->

<svg
   xmlns:dc="http://purl.org/dc/elements/1.1/"
   xmlns:cc="http://creativecommons.org/ns#"
   xmlns:rdf="http://www.w3.org/1999/02/22-rdf-syntax-ns#"
   xmlns:svg="http://www.w3.org/2000/svg"
   xmlns="http://www.w3.org/2000/svg"
   xmlns:sodipodi="http://sodipodi.sourceforge.net/DTD/sodipodi-0.dtd"
   xmlns:inkscape="http://www.inkscape.org/namespaces/inkscape"
   width="210mm"
   height="297mm"
   viewBox="0 0 744.09448819 1052.3622047"
   id="svg2"
   version="1.1"
   inkscape:version="0.91 r13725"
   sodipodi:docname="audience-wide.svg">
  <defs
     id="defs4">
    <inkscape:perspective
       sodipodi:type="inkscape:persp3d"
       inkscape:vp_x="-105.71429 : 563.32396 : 1"
       inkscape:vp_y="0 : 1000 : 0"
       inkscape:vp_z="892.66594 : 577.60967 : 1"
       inkscape:persp3d-origin="372.04724 : 350.7874 : 1"
       id="perspective3354" />
  </defs>
  <sodipodi:namedview
     id="base"
     pagecolor="#ffffff"
     bordercolor="#666666"
     borderopacity="1.0"
     inkscape:pageopacity="0.0"
     inkscape:pageshadow="2"
     inkscape:zoom="1.1841479"
     inkscape:cx="388.33982"
     inkscape:cy="396.68291"
     inkscape:document-units="px"
     inkscape:current-layer="layer1"
     showgrid="false"
     showguides="true"
     inkscape:guide-bbox="true"
     inkscape:window-width="1208"
     inkscape:window-height="995"
     inkscape:window-x="72"
     inkscape:window-y="0"
     inkscape:window-maximized="1">
    <sodipodi:guide
       position="-1006.0606,1401.5152"
       orientation="0,1"
       id="guide4696" />
    <sodipodi:guide
       position="-145.3125,378.12501"
       orientation="0,1"
       id="guide5008" />
    <sodipodi:guide
       position="-181.25,340.62501"
       orientation="0,1"
       id="guide5014" />
    <inkscape:grid
       type="xygrid"
       id="grid5016" />
    <sodipodi:guide
       position="-92.187501,303.12501"
       orientation="0,1"
       id="guide5018" />
    <sodipodi:guide
       position="-175,875.00002"
       orientation="0,1"
       id="guide5833" />
    <sodipodi:guide
       position="-84.375001,267.18751"
       orientation="0,1"
       id="guide5835" />
    <sodipodi:guide
       position="514.7381,412.02934"
       orientation="0,1"
       id="guide3739" />
    <sodipodi:guide
       position="253.78618,477.11803"
       orientation="0,1"
       id="guide3767" />
  </sodipodi:namedview>
  <metadata
     id="metadata7">
    <rdf:RDF>
      <cc:Work
         rdf:about="">
        <dc:format>image/svg+xml</dc:format>
        <dc:type
           rdf:resource="http://purl.org/dc/dcmitype/StillImage" />
        <dc:title></dc:title>
      </cc:Work>
    </rdf:RDF>
  </metadata>
  <g
     inkscape:label="Layer 1"
     inkscape:groupmode="layer"
     id="layer1">
    <rect
       style="display:inline;fill:#000000;fill-opacity:1;stroke:none;stroke-opacity:1"
       id="rect5052-8-1-3"
       width="616.65997"
       height="295.17123"
       x="105.90264"
       y="550.76025" />
    <path
       style="display:inline;fill:#a9d1ff;fill-opacity:1;stroke:none;stroke-opacity:1"
       id="path4664-9-2-6-9-0-1-7-6-2-0"
       sodipodi:type="arc"
       sodipodi:cx="359.48065"
       sodipodi:cy="-721.66632"
       sodipodi:rx="26.579897"
       sodipodi:ry="50.346748"
       sodipodi:start="0"
       sodipodi:end="3.1415927"
       d="m 386.06055,-721.66632 a 26.579897,50.346748 0 0 1 -13.28995,43.60156 26.579897,50.346748 0 0 1 -26.5799,0 26.579897,50.346748 0 0 1 -13.28995,-43.60156 l 26.5799,0 z"
       transform="scale(1,-1)" />
    <path
       style="display:inline;fill:#a9d1ff;fill-opacity:1;stroke:none;stroke-opacity:1"
       id="path4664-9-2-6-9-0-1-7-6-2-0-3"
       sodipodi:type="arc"
       sodipodi:cx="415.01505"
       sodipodi:cy="-721.66638"
       sodipodi:rx="26.579897"
       sodipodi:ry="50.346748"
       sodipodi:start="0"
       sodipodi:end="3.1415927"
       d="m 441.59494,-721.66638 a 26.579897,50.346748 0 0 1 -13.28995,43.60156 26.579897,50.346748 0 0 1 -26.57989,0 26.579897,50.346748 0 0 1 -13.28995,-43.60156 l 26.5799,0 z"
       transform="scale(1,-1)" />
    <path
       style="display:inline;fill:#66afff;fill-opacity:1;stroke:none;stroke-opacity:1"
       id="path4664-9-2-6-9-9-6-9-0-4"
       sodipodi:type="arc"
       sodipodi:cx="383.36642"
       sodipodi:cy="-743.52917"
       sodipodi:rx="35.190281"
       sodipodi:ry="64.272446"
       sodipodi:start="0"
       sodipodi:end="3.1415927"
       d="m 418.55671,-743.52917 a 35.190281,64.272446 0 0 1 -17.59515,55.66157 35.190281,64.272446 0 0 1 -35.19028,-10e-6 35.190281,64.272446 0 0 1 -17.59514,-55.66157 l 35.19028,10e-6 z"
       transform="scale(1,-1)" />
    <rect
       style="fill:#b7b7b7;fill-opacity:1;stroke:none;stroke-opacity:1"
       id="rect5626-0-7"
       width="43.429157"
       height="69.191582"
       x="653.80347"
       y="640.49481" />
    <rect
       style="fill:#999999;fill-opacity:1;stroke:none;stroke-opacity:1"
       id="rect5626-0"
       width="33.63327"
       height="63.115829"
       x="658.9342"
       y="644.7229" />
    <path
       style="display:inline;fill:#a9d1ff;fill-opacity:1;stroke:none;stroke-opacity:1"
       id="path4664-97-3-4-6-1-4"
       sodipodi:type="arc"
       sodipodi:cx="518.37531"
       sodipodi:cy="-723.5285"
       sodipodi:rx="26.579897"
       sodipodi:ry="50.346748"
       sodipodi:start="0"
       sodipodi:end="3.1415927"
       d="m 544.9552,-723.5285 a 26.579897,50.346748 0 0 1 -13.28995,43.60156 26.579897,50.346748 0 0 1 -26.57989,0 26.579897,50.346748 0 0 1 -13.28995,-43.60157 l 26.5799,10e-6 z"
       transform="scale(1,-1)" />
    <path
       style="display:inline;fill:#a9d1ff;fill-opacity:1;stroke:none;stroke-opacity:1"
       id="path4664-9-2-6-9-0-1-7-6-2-0-6"
       sodipodi:type="arc"
       sodipodi:cx="469.9523"
       sodipodi:cy="-721.66632"
       sodipodi:rx="26.579897"
       sodipodi:ry="50.346748"
       sodipodi:start="0"
       sodipodi:end="3.1415927"
       d="m 496.5322,-721.66632 a 26.579897,50.346748 0 0 1 -13.28995,43.60156 26.579897,50.346748 0 0 1 -26.5799,0 26.579897,50.346748 0 0 1 -13.28995,-43.60156 l 26.5799,0 z"
       transform="scale(1,-1)" />
    <rect
       style="display:inline;fill:#a9d1ff;fill-opacity:1;stroke:none;stroke-opacity:1"
       id="rect5020-5-8-5-4"
       width="142.77936"
       height="32.062771"
       x="497.3334"
       y="721.95538" />
    <path
       style="display:inline;fill:#a9d1ff;fill-opacity:1;stroke:none;stroke-opacity:1"
       id="path4664-9-3-1-5-8-9-4"
       sodipodi:type="arc"
       sodipodi:cx="570.50739"
       sodipodi:cy="-722.48187"
       sodipodi:rx="26.579897"
       sodipodi:ry="50.346748"
       sodipodi:start="0"
       sodipodi:end="3.1415927"
       d="m 597.08728,-722.48187 a 26.579897,50.346748 0 0 1 -13.28995,43.60156 26.579897,50.346748 0 0 1 -26.57989,0 26.579897,50.346748 0 0 1 -13.28995,-43.60156 l 26.5799,0 z"
       transform="scale(1,-1)" />
    <ellipse
       style="display:inline;fill:#fffa00;fill-opacity:1;stroke:none;stroke-opacity:1"
       id="path4699-4-4-1-1-0-4"
       cx="512.68719"
       cy="698.53247"
       rx="14.984484"
       ry="14.360004" />
    <path
       style="display:inline;fill:#66afff;fill-opacity:1;stroke:none;stroke-opacity:1"
       id="path4664-97-3-3-7-7"
       sodipodi:type="arc"
       sodipodi:cx="501.27267"
       sodipodi:cy="-744.57928"
       sodipodi:rx="35.190281"
       sodipodi:ry="64.272446"
       sodipodi:start="0"
       sodipodi:end="3.1415927"
       d="m 536.46296,-744.57928 a 35.190281,64.272446 0 0 1 -17.59515,55.66157 35.190281,64.272446 0 0 1 -35.19028,0 35.190281,64.272446 0 0 1 -17.59514,-55.66158 l 35.19028,10e-6 z"
       transform="scale(1,-1)" />
    <path
       style="display:inline;fill:#a9d1ff;fill-opacity:1;stroke:none;stroke-opacity:1"
       id="path4664-9-2-6-9-0-1-7-6"
       sodipodi:type="arc"
       sodipodi:cx="624.64282"
       sodipodi:cy="-722.11456"
       sodipodi:rx="26.579897"
       sodipodi:ry="50.346748"
       sodipodi:start="0"
       sodipodi:end="3.1415927"
       d="m 651.22272,-722.11456 a 26.579897,50.346748 0 0 1 -13.28995,43.60156 26.579897,50.346748 0 0 1 -26.5799,0 26.579897,50.346748 0 0 1 -13.28994,-43.60157 l 26.57989,10e-6 z"
       transform="scale(1,-1)" />
    <path
       style="display:inline;fill:#66afff;fill-opacity:1;stroke:none;stroke-opacity:1"
       id="path4664-9-3-1-4-6-3"
       sodipodi:type="arc"
       sodipodi:cx="570.58606"
       sodipodi:cy="-744.93127"
       sodipodi:rx="35.190281"
       sodipodi:ry="64.272446"
       sodipodi:start="0"
       sodipodi:end="3.1415927"
       d="m 605.77634,-744.93127 a 35.190281,64.272446 0 0 1 -17.59514,55.66157 35.190281,64.272446 0 0 1 -35.19028,0 35.190281,64.272446 0 0 1 -17.59514,-55.66158 l 35.19028,10e-6 z"
       transform="scale(1,-1)" />
    <rect
       style="display:inline;fill:#66afff;fill-opacity:1;stroke:none;stroke-opacity:1"
       id="rect5020-6-9-7-1"
       width="142.77936"
       height="32.062771"
       x="499.19174"
       y="744.88531" />
    <path
       style="display:inline;fill:#66afff;fill-opacity:1;stroke:none;stroke-opacity:1"
       id="path4664-9-2-6-9-9-6-9-0-4-5"
       sodipodi:type="arc"
       sodipodi:cx="438.30365"
       sodipodi:cy="-742.93207"
       sodipodi:rx="35.190281"
       sodipodi:ry="64.272446"
       sodipodi:start="0"
       sodipodi:end="3.1415927"
       d="m 473.49393,-742.93207 a 35.190281,64.272446 0 0 1 -17.59514,55.66157 35.190281,64.272446 0 0 1 -35.19028,0 35.190281,64.272446 0 0 1 -17.59514,-55.66157 l 35.19028,0 z"
       transform="scale(1,-1)" />
    <path
       style="display:inline;fill:#1b87ff;fill-opacity:1;stroke:none;stroke-opacity:1"
       id="path4664-97-6-3-7"
       sodipodi:type="arc"
       sodipodi:cx="479.75235"
       sodipodi:cy="-773.73456"
       sodipodi:rx="45.859676"
       sodipodi:ry="82.482964"
       sodipodi:start="0"
       sodipodi:end="3.1415927"
       d="m 525.61203,-773.73456 a 45.859676,82.482964 0 0 1 -22.92984,71.43234 45.859676,82.482964 0 0 1 -45.85968,0 45.859676,82.482964 0 0 1 -22.92984,-71.43234 l 45.85968,0 z"
       transform="scale(1,-1)" />
    <ellipse
       style="display:inline;fill:#fffa00;fill-opacity:1;stroke:none;stroke-opacity:1"
       id="path4699-4-4-1-1-5-5"
       cx="644.65289"
       cy="714.97858"
       rx="19.554806"
       ry="19.196003"
       inkscape:transform-center-x="0.7360562"
       inkscape:transform-center-y="3.9750983" />
    <path
       style="display:inline;fill:#66afff;fill-opacity:1;stroke:none;stroke-opacity:1"
       id="path4664-9-2-6-9-9-6-9"
       sodipodi:type="arc"
       sodipodi:cx="641.54736"
       sodipodi:cy="-745.11487"
       sodipodi:rx="35.190281"
       sodipodi:ry="64.272446"
       sodipodi:start="0"
       sodipodi:end="3.1415927"
       d="m 676.73764,-745.11487 a 35.190281,64.272446 0 0 1 -17.59514,55.66157 35.190281,64.272446 0 0 1 -35.19028,0 35.190281,64.272446 0 0 1 -17.59514,-55.66157 l 35.19028,0 z"
       transform="scale(1,-1)" />
    <ellipse
       style="display:inline;fill:#fffa00;fill-opacity:1;stroke:none;stroke-opacity:1"
       id="path4699-4-4-1-1-6"
       cx="649.93384"
       cy="727.36371"
       rx="25.169209"
       ry="24.120277" />
    <path
       style="display:inline;fill:#1b87ff;fill-opacity:1;stroke:none;stroke-opacity:1"
       id="path4664-9-2-6-6-5-2"
       sodipodi:type="arc"
       sodipodi:cx="664.06396"
       sodipodi:cy="-774.27014"
       sodipodi:rx="45.859676"
       sodipodi:ry="82.482964"
       sodipodi:start="0"
       sodipodi:end="3.1415927"
       d="m 709.92364,-774.27014 a 45.859676,82.482964 0 0 1 -22.92984,71.43234 45.859676,82.482964 0 0 1 -45.85967,0 45.859676,82.482964 0 0 1 -22.92984,-71.43235 l 45.85967,10e-6 z"
       transform="scale(1,-1)" />
    <path
       style="display:inline;fill:#1b87ff;fill-opacity:1;stroke:none;stroke-opacity:1"
       id="path4664-9-3-4-6-1"
       sodipodi:type="arc"
       sodipodi:cx="570.5636"
       sodipodi:cy="-773.73456"
       sodipodi:rx="45.859676"
       sodipodi:ry="82.482964"
       sodipodi:start="0"
       sodipodi:end="3.1415927"
       d="m 616.42327,-773.73456 a 45.859676,82.482964 0 0 1 -22.92983,71.43234 45.859676,82.482964 0 0 1 -45.85968,0 45.859676,82.482964 0 0 1 -22.92984,-71.43234 l 45.85968,0 z"
       transform="scale(1,-1)" />
    <rect
       style="display:inline;fill:#1b87ff;fill-opacity:1;stroke:none;stroke-opacity:1"
       id="rect5020-9-3-7"
       width="126.36622"
       height="32.062771"
       x="508.77603"
       y="772.35425" />
    <ellipse
       style="display:inline;fill:#fffa00;fill-opacity:1;stroke:none;stroke-opacity:1"
       id="path4699-4-4-1-8"
       cx="476.55679"
       cy="731.45032"
       rx="25.169209"
       ry="24.120277" />
    <path
       style="display:inline;fill:#1b87ff;fill-opacity:1;stroke:none;stroke-opacity:1"
       id="path4664-9-2-6-6-5-2-3-8"
       sodipodi:type="arc"
       sodipodi:cx="414.02933"
       sodipodi:cy="-774.93738"
       sodipodi:rx="45.859676"
       sodipodi:ry="82.482964"
       sodipodi:start="0"
       sodipodi:end="3.1415927"
       d="m 459.889,-774.93738 a 45.859676,82.482964 0 0 1 -22.92984,71.43234 45.859676,82.482964 0 0 1 -45.85967,0 45.859676,82.482964 0 0 1 -22.92984,-71.43234 l 45.85968,0 z"
       transform="scale(1,-1)" />
    <path
       style="display:inline;fill:#416abe;fill-opacity:1;stroke:none;stroke-opacity:1"
       id="path4664-0-9-5"
       sodipodi:type="arc"
       sodipodi:cx="458.87918"
       sodipodi:cy="-804.13232"
       sodipodi:rx="56.435478"
       sodipodi:ry="100.69349"
       sodipodi:start="0"
       sodipodi:end="3.1415927"
       d="m 515.31466,-804.13232 a 56.435478,100.69349 0 0 1 -28.21774,87.20312 56.435478,100.69349 0 0 1 -56.43548,-10e-6 56.435478,100.69349 0 0 1 -28.21774,-87.20312 l 56.43548,10e-6 z"
       transform="scale(1,-1)" />
    <ellipse
       style="display:inline;fill:#fffa00;fill-opacity:1;stroke:none;stroke-opacity:1"
       id="path4699-4-4-7"
       cx="457.74902"
       cy="758.94061"
       rx="33.222244"
       ry="32.293552" />
    <path
       style="display:inline;fill:#416abe;fill-opacity:1;stroke:none;stroke-opacity:1"
       id="path4664-9-8-8-4"
       sodipodi:type="arc"
       sodipodi:cx="570.63251"
       sodipodi:cy="-804.13232"
       sodipodi:rx="56.435478"
       sodipodi:ry="100.69349"
       sodipodi:start="0"
       sodipodi:end="3.1415927"
       d="m 627.06799,-804.13232 a 56.435478,100.69349 0 0 1 -28.21774,87.20312 56.435478,100.69349 0 0 1 -56.43548,-10e-6 56.435478,100.69349 0 0 1 -28.21774,-87.20312 l 56.43548,10e-6 z"
       transform="scale(1,-1)" />
    <path
       style="display:inline;fill:#416abe;fill-opacity:1;stroke:none;stroke-opacity:1"
       id="path4664-9-2-7-1-1"
       sodipodi:type="arc"
       sodipodi:cx="683.50348"
       sodipodi:cy="-804.13232"
       sodipodi:rx="56.435478"
       sodipodi:ry="100.69349"
       sodipodi:start="0"
       sodipodi:end="3.1415927"
       d="m 739.93896,-804.13232 a 56.435478,100.69349 0 0 1 -28.21774,87.20312 56.435478,100.69349 0 0 1 -56.43548,-10e-6 56.435478,100.69349 0 0 1 -28.21774,-87.20312 l 56.43548,10e-6 z"
       transform="scale(1,-1)" />
    <ellipse
       style="display:inline;fill:#fffa00;fill-opacity:1;stroke:none;stroke-opacity:1"
       id="path4699-0-2-2-8"
       cx="569.09381"
       cy="760.99878"
       rx="33.222244"
       ry="32.293552" />
    <ellipse
       style="display:inline;fill:#fffa00;fill-opacity:1;stroke:none;stroke-opacity:1"
       id="path4699-0-6-7-9-5"
       cx="683.49774"
       cy="762.87793"
       rx="33.222244"
       ry="32.293552" />
    <rect
       style="display:inline;fill:#000000;fill-opacity:1;stroke:none;stroke-opacity:1"
       id="rect4889-2-3-9"
       width="28.746183"
       height="2.4454072"
       x="554.12811"
       y="770.97388"
       ry="0" />
    <ellipse
       style="display:inline;fill:#000000;fill-opacity:1;stroke:none;stroke-opacity:1"
       id="path4895-2-9-7"
       cx="447.31427"
       cy="750.56891"
       rx="4.3360324"
       ry="4.1562848" />
    <ellipse
       style="display:inline;fill:#000000;fill-opacity:1;stroke:none;stroke-opacity:1"
       id="path4895-6-6-0-5"
       cx="466.207"
       cy="750.27203"
       rx="4.3360324"
       ry="4.1562848" />
    <ellipse
       style="display:inline;fill:#000000;fill-opacity:1;stroke:none;stroke-opacity:1"
       id="path4895-6-1-1-8-3"
       cx="559.19531"
       cy="751.57281"
       rx="4.3360324"
       ry="4.1562848" />
    <ellipse
       style="display:inline;fill:#000000;fill-opacity:1;stroke:none;stroke-opacity:1"
       id="path4895-6-1-5-0-8-8"
       cx="577.63159"
       cy="751.68604"
       rx="4.3360324"
       ry="4.1562848" />
    <ellipse
       style="display:inline;fill:#000000;fill-opacity:1;stroke:none;stroke-opacity:1"
       id="path4895-6-1-5-5-6-5-8"
       cx="674.6463"
       cy="752.98676"
       rx="4.3360324"
       ry="4.1562848" />
    <ellipse
       style="display:inline;fill:#000000;fill-opacity:1;stroke:none;stroke-opacity:1"
       id="path4895-6-1-5-4-1-0-3"
       cx="693.22931"
       cy="752.68988"
       rx="4.3360324"
       ry="4.1562848" />
    <g
       style="display:inline"
       id="g5010-5-9-1"
       transform="matrix(0.36878629,0,0,0.35349844,874.1038,640.3085)">
      <path
         transform="matrix(-0.99982051,0.01894594,-0.01894594,-0.99982051,0,0)"
         d="m 560.31579,-393.06699 a 37.121212,37.121212 0 0 1 -18.93771,32.36271 37.121212,37.121212 0 0 1 -37.49065,-0.65753 37.121212,37.121212 0 0 1 -17.79123,-33.00687 l 37.09838,1.30169 z"
         sodipodi:end="3.176666"
         sodipodi:start="0"
         sodipodi:ry="37.121212"
         sodipodi:rx="37.121212"
         sodipodi:cy="-393.06699"
         sodipodi:cx="523.19458"
         sodipodi:type="arc"
         id="path4872-3-7-94-6-8"
         style="display:inline;fill:#000000;fill-opacity:1;stroke:none;stroke-opacity:1" />
      <path
         transform="matrix(-0.99980963,0.01951182,-0.01839645,-0.99983077,0,0)"
         d="m 553.73556,-394.21701 a 31.242764,32.175613 0 0 1 -15.93877,28.05107 31.242764,32.175613 0 0 1 -31.5537,-0.56992 31.242764,32.175613 0 0 1 -14.97384,-28.60943 l 31.22355,1.12828 z"
         sodipodi:end="3.176666"
         sodipodi:start="0"
         sodipodi:ry="32.175613"
         sodipodi:rx="31.242764"
         sodipodi:cy="-394.21701"
         sodipodi:cx="522.4928"
         sodipodi:type="arc"
         id="path4872-3-9-3-9"
         style="display:inline;fill:#ffff00;fill-opacity:1;stroke:none;stroke-opacity:1" />
    </g>
    <g
       style="display:inline"
       id="g5010-6-0-8-6"
       transform="matrix(0.36878629,0,0,-0.35349844,647.39123,906.68782)">
      <path
         transform="matrix(-0.99982051,0.01894594,-0.01894594,-0.99982051,0,0)"
         d="m 560.31579,-393.06699 a 37.121212,37.121212 0 0 1 -18.93771,32.36271 37.121212,37.121212 0 0 1 -37.49065,-0.65753 37.121212,37.121212 0 0 1 -17.79123,-33.00687 l 37.09838,1.30169 z"
         sodipodi:end="3.176666"
         sodipodi:start="0"
         sodipodi:ry="37.121212"
         sodipodi:rx="37.121212"
         sodipodi:cy="-393.06699"
         sodipodi:cx="523.19458"
         sodipodi:type="arc"
         id="path4872-3-7-9-9-5-4"
         style="display:inline;fill:#000000;fill-opacity:1;stroke:none;stroke-opacity:1" />
      <path
         transform="matrix(-0.99980963,0.01951182,-0.01839645,-0.99983077,0,0)"
         d="m 553.73556,-394.21701 a 31.242764,32.175613 0 0 1 -15.93877,28.05107 31.242764,32.175613 0 0 1 -31.5537,-0.56992 31.242764,32.175613 0 0 1 -14.97384,-28.60943 l 31.22355,1.12828 z"
         sodipodi:end="3.176666"
         sodipodi:start="0"
         sodipodi:ry="32.175613"
         sodipodi:rx="31.242764"
         sodipodi:cy="-394.21701"
         sodipodi:cx="522.4928"
         sodipodi:type="arc"
         id="path4872-3-3-1-6-3"
         style="display:inline;fill:#ffff00;fill-opacity:1;stroke:none;stroke-opacity:1" />
    </g>
    <ellipse
       style="fill:#fffa00;fill-opacity:1;stroke:none;stroke-opacity:1"
       id="path5588-3"
       cx="456.42407"
       cy="826.37103"
       rx="39.080914"
       ry="37.460835" />
    <ellipse
       style="fill:#fffa00;fill-opacity:1;stroke:none;stroke-opacity:1"
       id="path5588-8-3"
       cx="568.92963"
       cy="825.58636"
       rx="39.080914"
       ry="37.460835" />
    <ellipse
       style="fill:#fffa00;fill-opacity:1;stroke:none;stroke-opacity:1"
       id="path5588-8-1-8"
       cx="682.82959"
       cy="825.78754"
       rx="39.080914"
       ry="37.460835" />
    <rect
       style="fill:#fffa00;fill-opacity:1;stroke:none;stroke-opacity:1"
       id="rect5622-0"
       width="41.212601"
       height="7.265131"
       x="663.19763"
       y="776.50696" />
    <rect
       style="fill:#999999;fill-opacity:1;stroke:none;stroke-opacity:1"
       id="rect5624-4"
       width="616.85095"
       height="7.5226612"
       x="105.90258"
       y="597.65411" />
    <rect
       style="fill:#000000;fill-opacity:1;stroke:none;stroke-opacity:1"
       id="rect5628-8"
       width="11.842702"
       height="1.8162827"
       x="663.67139"
       y="672.42114" />
    <rect
       style="fill:#ffffff;fill-opacity:1;stroke:none;stroke-opacity:1"
       id="rect5795"
       width="16.857471"
       height="104.67123"
       x="723.08533"
       y="718.62195" />
    <ellipse
       style="fill:#ffff00;fill-opacity:1;stroke:none;stroke-opacity:1"
       id="path5799"
       cx="645.26135"
       cy="575.25769"
       rx="11.816199"
       ry="4.4914899" />
    <ellipse
       style="fill:#ffff00;fill-opacity:1;stroke:none;stroke-opacity:1"
       id="path5799-89"
       cx="488.39127"
       cy="575.67542"
       rx="11.816199"
       ry="4.4914899" />
    <rect
       style="fill:#b7b7b7;fill-opacity:1;stroke:none;stroke-opacity:1"
       id="rect5626-0-7-3"
       width="43.429157"
       height="69.191582"
       x="141.57584"
       y="640.92749" />
    <rect
       style="fill:#999999;fill-opacity:1;stroke:none;stroke-opacity:1"
       id="rect5626-0-6"
       width="33.63327"
       height="63.115829"
       x="146.70657"
       y="645.15558" />
    <path
       style="display:inline;fill:#a9d1ff;fill-opacity:1;stroke:none;stroke-opacity:1"
       id="path4664-97-3-4-6-1-4-7"
       sodipodi:type="arc"
       sodipodi:cx="210.37091"
       sodipodi:cy="-723.36401"
       sodipodi:rx="26.579897"
       sodipodi:ry="50.346748"
       sodipodi:start="0"
       sodipodi:end="3.1415927"
       d="m 236.95081,-723.36401 a 26.579897,50.346748 0 0 1 -13.28995,43.60156 26.579897,50.346748 0 0 1 -26.5799,0 26.579897,50.346748 0 0 1 -13.28995,-43.60157 l 26.5799,10e-6 z"
       transform="scale(1,-1)" />
    <rect
       style="display:inline;fill:#a9d1ff;fill-opacity:1;stroke:none;stroke-opacity:1"
       id="rect5020-5-8-5-4-5"
       width="142.77936"
       height="32.062771"
       x="189.32898"
       y="721.79089" />
    <path
       style="display:inline;fill:#a9d1ff;fill-opacity:1;stroke:none;stroke-opacity:1"
       id="path4664-9-3-1-5-8-9-4-3"
       sodipodi:type="arc"
       sodipodi:cx="262.50299"
       sodipodi:cy="-722.31738"
       sodipodi:rx="26.579897"
       sodipodi:ry="50.346748"
       sodipodi:start="0"
       sodipodi:end="3.1415927"
       d="m 289.08289,-722.31738 a 26.579897,50.346748 0 0 1 -13.28995,43.60156 26.579897,50.346748 0 0 1 -26.5799,0 26.579897,50.346748 0 0 1 -13.28995,-43.60157 l 26.5799,1e-5 z"
       transform="scale(1,-1)" />
    <ellipse
       style="display:inline;fill:#fffa00;fill-opacity:1;stroke:none;stroke-opacity:1"
       id="path4699-4-4-1-1-0-4-5"
       cx="204.6828"
       cy="698.36798"
       rx="14.984484"
       ry="14.360004" />
    <path
       style="display:inline;fill:#66afff;fill-opacity:1;stroke:none;stroke-opacity:1"
       id="path4664-97-3-3-7-7-6"
       sodipodi:type="arc"
       sodipodi:cx="193.26825"
       sodipodi:cy="-744.41479"
       sodipodi:rx="35.190281"
       sodipodi:ry="64.272446"
       sodipodi:start="0"
       sodipodi:end="3.1415927"
       d="m 228.45853,-744.41479 a 35.190281,64.272446 0 0 1 -17.59514,55.66157 35.190281,64.272446 0 0 1 -35.19028,-10e-6 35.190281,64.272446 0 0 1 -17.59514,-55.66157 l 35.19028,10e-6 z"
       transform="scale(1,-1)" />
    <path
       style="display:inline;fill:#a9d1ff;fill-opacity:1;stroke:none;stroke-opacity:1"
       id="path4664-9-2-6-9-0-1-7-6-2"
       sodipodi:type="arc"
       sodipodi:cx="316.63843"
       sodipodi:cy="-721.95007"
       sodipodi:rx="26.579897"
       sodipodi:ry="50.346748"
       sodipodi:start="0"
       sodipodi:end="3.1415927"
       d="m 343.21832,-721.95007 a 26.579897,50.346748 0 0 1 -13.28994,43.60156 26.579897,50.346748 0 0 1 -26.5799,0 26.579897,50.346748 0 0 1 -13.28995,-43.60157 l 26.5799,10e-6 z"
       transform="scale(1,-1)" />
    <path
       style="display:inline;fill:#66afff;fill-opacity:1;stroke:none;stroke-opacity:1"
       id="path4664-9-3-1-4-6-3-9"
       sodipodi:type="arc"
       sodipodi:cx="262.58167"
       sodipodi:cy="-744.76678"
       sodipodi:rx="35.190281"
       sodipodi:ry="64.272446"
       sodipodi:start="0"
       sodipodi:end="3.1415927"
       d="m 297.77195,-744.76678 a 35.190281,64.272446 0 0 1 -17.59514,55.66157 35.190281,64.272446 0 0 1 -35.19029,0 35.190281,64.272446 0 0 1 -17.59514,-55.66158 l 35.19029,10e-6 z"
       transform="scale(1,-1)" />
    <rect
       style="display:inline;fill:#66afff;fill-opacity:1;stroke:none;stroke-opacity:1"
       id="rect5020-6-9-7-1-1"
       width="142.77936"
       height="32.062771"
       x="191.18732"
       y="744.72083" />
    <path
       style="display:inline;fill:#1b87ff;fill-opacity:1;stroke:none;stroke-opacity:1"
       id="path4664-97-6-3-7-2"
       sodipodi:type="arc"
       sodipodi:cx="171.74792"
       sodipodi:cy="-773.57007"
       sodipodi:rx="45.859676"
       sodipodi:ry="82.482964"
       sodipodi:start="0"
       sodipodi:end="3.1415927"
       d="m 217.6076,-773.57007 a 45.859676,82.482964 0 0 1 -22.92984,71.43234 45.859676,82.482964 0 0 1 -45.85967,0 45.859676,82.482964 0 0 1 -22.92984,-71.43234 l 45.85967,0 z"
       transform="scale(1,-1)" />
    <ellipse
       style="display:inline;fill:#fffa00;fill-opacity:1;stroke:none;stroke-opacity:1"
       id="path4699-4-4-1-1-5-5-7"
       cx="336.6485"
       cy="714.81409"
       rx="19.554806"
       ry="19.196003"
       inkscape:transform-center-x="0.7360562"
       inkscape:transform-center-y="3.9750983" />
    <path
       style="display:inline;fill:#66afff;fill-opacity:1;stroke:none;stroke-opacity:1"
       id="path4664-9-2-6-9-9-6-9-0"
       sodipodi:type="arc"
       sodipodi:cx="333.54297"
       sodipodi:cy="-744.95038"
       sodipodi:rx="35.190281"
       sodipodi:ry="64.272446"
       sodipodi:start="0"
       sodipodi:end="3.1415927"
       d="m 368.73325,-744.95038 a 35.190281,64.272446 0 0 1 -17.59514,55.66157 35.190281,64.272446 0 0 1 -35.19028,0 35.190281,64.272446 0 0 1 -17.59514,-55.66157 l 35.19028,0 z"
       transform="scale(1,-1)" />
    <ellipse
       style="display:inline;fill:#fffa00;fill-opacity:1;stroke:none;stroke-opacity:1"
       id="path4699-4-4-1-1-6-9"
       cx="341.92944"
       cy="727.19922"
       rx="25.169209"
       ry="24.120277" />
    <path
       style="display:inline;fill:#1b87ff;fill-opacity:1;stroke:none;stroke-opacity:1"
       id="path4664-9-2-6-6-5-2-3"
       sodipodi:type="arc"
       sodipodi:cx="356.05957"
       sodipodi:cy="-774.10565"
       sodipodi:rx="45.859676"
       sodipodi:ry="82.482964"
       sodipodi:start="0"
       sodipodi:end="3.1415927"
       d="m 401.91925,-774.10565 a 45.859676,82.482964 0 0 1 -22.92984,71.43234 45.859676,82.482964 0 0 1 -45.85968,0 45.859676,82.482964 0 0 1 -22.92984,-71.43235 l 45.85968,10e-6 z"
       transform="scale(1,-1)" />
    <path
       style="display:inline;fill:#1b87ff;fill-opacity:1;stroke:none;stroke-opacity:1"
       id="path4664-9-3-4-6-1-6"
       sodipodi:type="arc"
       sodipodi:cx="262.5592"
       sodipodi:cy="-773.57007"
       sodipodi:rx="45.859676"
       sodipodi:ry="82.482964"
       sodipodi:start="0"
       sodipodi:end="3.1415927"
       d="m 308.41888,-773.57007 a 45.859676,82.482964 0 0 1 -22.92984,71.43234 45.859676,82.482964 0 0 1 -45.85968,0 45.859676,82.482964 0 0 1 -22.92983,-71.43234 l 45.85967,0 z"
       transform="scale(1,-1)" />
    <rect
       style="display:inline;fill:#1b87ff;fill-opacity:1;stroke:none;stroke-opacity:1"
       id="rect5020-9-3-7-0"
       width="126.36622"
       height="32.062771"
       x="200.77161"
       y="772.18976" />
    <ellipse
       style="display:inline;fill:#fffa00;fill-opacity:1;stroke:none;stroke-opacity:1"
       id="path4699-4-4-1-8-6"
       cx="168.55237"
       cy="731.28583"
       rx="25.169209"
       ry="24.120277" />
    <path
       style="display:inline;fill:#416abe;fill-opacity:1;stroke:none;stroke-opacity:1"
       id="path4664-0-9-5-2"
       sodipodi:type="arc"
       sodipodi:cx="150.87476"
       sodipodi:cy="-803.96783"
       sodipodi:rx="56.435478"
       sodipodi:ry="100.69349"
       sodipodi:start="0"
       sodipodi:end="3.1415927"
       d="m 207.31023,-803.96783 a 56.435478,100.69349 0 0 1 -28.21774,87.20312 56.435478,100.69349 0 0 1 -56.43547,-10e-6 56.435478,100.69349 0 0 1 -28.217742,-87.20312 l 56.435482,10e-6 z"
       transform="scale(1,-1)" />
    <ellipse
       style="display:inline;fill:#fffa00;fill-opacity:1;stroke:none;stroke-opacity:1"
       id="path4699-4-4-7-6"
       cx="149.7446"
       cy="758.77612"
       rx="33.222244"
       ry="32.293552" />
    <path
       style="display:inline;fill:#416abe;fill-opacity:1;stroke:none;stroke-opacity:1"
       id="path4664-9-8-8-4-1"
       sodipodi:type="arc"
       sodipodi:cx="262.62811"
       sodipodi:cy="-803.96783"
       sodipodi:rx="56.435478"
       sodipodi:ry="100.69349"
       sodipodi:start="0"
       sodipodi:end="3.1415927"
       d="m 319.06359,-803.96783 a 56.435478,100.69349 0 0 1 -28.21774,87.20312 56.435478,100.69349 0 0 1 -56.43548,-10e-6 56.435478,100.69349 0 0 1 -28.21774,-87.20312 l 56.43548,10e-6 z"
       transform="scale(1,-1)" />
    <ellipse
       style="display:inline;fill:#fffa00;fill-opacity:1;stroke:none;stroke-opacity:1"
       id="path4699-0-2-2-8-8"
       cx="261.08942"
       cy="760.83429"
       rx="33.222244"
       ry="32.293552" />
    <path
       style="display:inline;fill:#416abe;fill-opacity:1;stroke:none;stroke-opacity:1"
       id="path4664-9-2-7-1-1-7"
       sodipodi:type="arc"
       sodipodi:cx="367.89777"
       sodipodi:cy="-804.13696"
       sodipodi:rx="56.435478"
       sodipodi:ry="100.69349"
       sodipodi:start="0"
       sodipodi:end="3.1415927"
       d="m 424.33324,-804.13696 a 56.435478,100.69349 0 0 1 -28.21774,87.20312 56.435478,100.69349 0 0 1 -56.43547,0 56.435478,100.69349 0 0 1 -28.21774,-87.20313 l 56.43548,10e-6 z"
       transform="scale(1,-1)" />
    <ellipse
       style="display:inline;fill:#fffa00;fill-opacity:1;stroke:none;stroke-opacity:1"
       id="path4699-0-6-7-9-5-7"
       cx="367.49335"
       cy="760.71344"
       rx="33.222244"
       ry="32.293552" />
    <rect
       style="display:inline;fill:#000000;fill-opacity:1;stroke:none;stroke-opacity:1"
       id="rect4889-2-3-9-9"
       width="28.746183"
       height="2.4454072"
       x="246.12372"
       y="770.80939"
       ry="0" />
    <ellipse
       style="display:inline;fill:#000000;fill-opacity:1;stroke:none;stroke-opacity:1"
       id="path4895-2-9-7-2"
       cx="139.30984"
       cy="750.40442"
       rx="4.3360324"
       ry="4.1562848" />
    <ellipse
       style="display:inline;fill:#000000;fill-opacity:1;stroke:none;stroke-opacity:1"
       id="path4895-6-6-0-5-0"
       cx="158.20258"
       cy="750.10754"
       rx="4.3360324"
       ry="4.1562848" />
    <ellipse
       style="display:inline;fill:#000000;fill-opacity:1;stroke:none;stroke-opacity:1"
       id="path4895-6-1-1-8-3-2"
       cx="251.19092"
       cy="751.40833"
       rx="4.3360324"
       ry="4.1562848" />
    <ellipse
       style="display:inline;fill:#000000;fill-opacity:1;stroke:none;stroke-opacity:1"
       id="path4895-6-1-5-0-8-8-3"
       cx="269.6272"
       cy="751.52155"
       rx="4.3360324"
       ry="4.1562848" />
    <ellipse
       style="display:inline;fill:#000000;fill-opacity:1;stroke:none;stroke-opacity:1"
       id="path4895-6-1-5-5-6-5-8-7"
       cx="358.64191"
       cy="750.82227"
       rx="4.3360324"
       ry="4.1562848" />
    <ellipse
       style="display:inline;fill:#000000;fill-opacity:1;stroke:none;stroke-opacity:1"
       id="path4895-6-1-5-4-1-0-3-5"
       cx="377.22491"
       cy="750.52539"
       rx="4.3360324"
       ry="4.1562848" />
    <g
       style="display:inline"
       id="g5010-5-9-1-9"
       transform="matrix(0.36878629,0,0,0.35349844,338.95446,636.03273)">
      <path
         transform="matrix(-0.99982051,0.01894594,-0.01894594,-0.99982051,0,0)"
         d="m 560.31579,-393.06699 a 37.121212,37.121212 0 0 1 -18.93771,32.36271 37.121212,37.121212 0 0 1 -37.49065,-0.65753 37.121212,37.121212 0 0 1 -17.79123,-33.00687 l 37.09838,1.30169 z"
         sodipodi:end="3.176666"
         sodipodi:start="0"
         sodipodi:ry="37.121212"
         sodipodi:rx="37.121212"
         sodipodi:cy="-393.06699"
         sodipodi:cx="523.19458"
         sodipodi:type="arc"
         id="path4872-3-7-94-6-8-2"
         style="display:inline;fill:#000000;fill-opacity:1;stroke:none;stroke-opacity:1" />
      <path
         transform="matrix(-0.99980963,0.01951182,-0.01839645,-0.99983077,0,0)"
         d="m 553.73556,-394.21701 a 31.242764,32.175613 0 0 1 -15.93877,28.05107 31.242764,32.175613 0 0 1 -31.5537,-0.56992 31.242764,32.175613 0 0 1 -14.97384,-28.60943 l 31.22355,1.12828 z"
         sodipodi:end="3.176666"
         sodipodi:start="0"
         sodipodi:ry="32.175613"
         sodipodi:rx="31.242764"
         sodipodi:cy="-394.21701"
         sodipodi:cx="522.4928"
         sodipodi:type="arc"
         id="path4872-3-9-3-9-2"
         style="display:inline;fill:#ffff00;fill-opacity:1;stroke:none;stroke-opacity:1" />
    </g>
    <g
       id="g3867"
       transform="translate(51.513834,-2.9557118)">
      <path
         transform="matrix(-0.99983508,-0.01816081,-0.01976498,0.99980465,0,0)"
         d="m -317.29347,764.20544 a 13.689594,13.122499 0 0 1 -6.98386,11.44035 13.689594,13.122499 0 0 1 -13.82584,-0.23244 13.689594,13.122499 0 0 1 -6.56107,-11.66806 l 13.68118,0.46015 z"
         sodipodi:end="3.176666"
         sodipodi:start="0"
         sodipodi:ry="13.122499"
         sodipodi:rx="13.689594"
         sodipodi:cy="764.20544"
         sodipodi:cx="-330.98306"
         sodipodi:type="arc"
         id="path4872-3-7-9-9-5-4-9"
         style="display:inline;fill:#000000;fill-opacity:1;stroke:none;stroke-opacity:1" />
      <path
         transform="matrix(-0.99988815,-0.01495642,-0.02399864,0.99971199,0,0)"
         d="m -322.93774,767.05713 a 11.520998,9.0959692 0 0 1 -5.87754,7.92997 11.520998,9.0959692 0 0 1 -11.63566,-0.16112 11.520998,9.0959692 0 0 1 -5.52171,-8.08781 l 11.51391,0.31896 z"
         sodipodi:end="3.176666"
         sodipodi:start="0"
         sodipodi:ry="9.0959692"
         sodipodi:rx="11.520998"
         sodipodi:cy="767.05713"
         sodipodi:cx="-334.45874"
         sodipodi:type="arc"
         id="path4872-3-3-1-6-3-7"
         style="display:inline;fill:#ffff00;fill-opacity:1;stroke:none;stroke-opacity:1" />
    </g>
    <ellipse
       style="fill:#fffa00;fill-opacity:1;stroke:none;stroke-opacity:1"
       id="path5588-3-3"
       cx="148.41965"
       cy="826.20654"
       rx="39.080914"
       ry="37.460835" />
    <ellipse
       style="fill:#fffa00;fill-opacity:1;stroke:none;stroke-opacity:1"
       id="path5588-8-3-6"
       cx="260.92523"
       cy="825.42188"
       rx="39.080914"
       ry="37.460835" />
    <ellipse
       style="fill:#fffa00;fill-opacity:1;stroke:none;stroke-opacity:1"
       id="path5588-8-1-8-1"
       cx="366.8252"
       cy="823.62305"
       rx="39.080914"
       ry="37.460835" />
    <rect
       style="fill:#000000;fill-opacity:1;stroke:none;stroke-opacity:1"
       id="rect5628-8-9"
       width="11.842702"
       height="1.8162827"
       x="151.44376"
       y="672.85382" />
    <rect
       style="fill:#552200;fill-opacity:1;stroke:none;stroke-opacity:1"
       id="rect5789-3"
       width="617.54633"
       height="44.178955"
       x="106.4477"
       y="802.48029" />
    <rect
       style="fill:#ffffff;fill-opacity:1;stroke:none;stroke-opacity:1"
       id="rect5620-6"
       width="616.04706"
       height="36.674564"
       x="106.60712"
       y="845.82025" />
    <rect
       style="fill:#ffffff;fill-opacity:1;stroke:none;stroke-opacity:1"
       id="rect5797-1"
       width="12.136784"
       height="101.15615"
       x="94.093178"
       y="715.72351" />
    <ellipse
       style="fill:#ffff00;fill-opacity:1;stroke:none;stroke-opacity:1"
       id="path5799-9"
       cx="336.99838"
       cy="576.22961"
       rx="11.816199"
       ry="4.4914899" />
    <ellipse
       style="fill:#ffff00;fill-opacity:1;stroke:none;stroke-opacity:1"
       id="path5799-89-4"
       cx="180.12833"
       cy="576.05017"
       rx="11.816199"
       ry="4.4914899" />
    <flowRoot
       xml:space="preserve"
       id="flowRoot3871"
       style="font-style:normal;font-weight:normal;font-size:40px;line-height:125%;font-family:sans-serif;letter-spacing:0px;word-spacing:0px;fill:#ffffff;fill-opacity:1;stroke:none;stroke-width:1px;stroke-linecap:butt;stroke-linejoin:miter;stroke-opacity:1"
       transform="translate(16,0)"><flowRegion
         id="flowRegion3873"><rect
           id="rect3875"
           width="439.13434"
           height="61.853809"
           x="200.14391"
           y="612.38336"
           style="fill:#ffffff" /></flowRegion><flowPara
         id="flowPara3877">PRiSM Perception App</flowPara></flowRoot>  </g>
  <g
     inkscape:groupmode="layer"
     id="layer2"
     inkscape:label="Layer 2"
     style="display:inline" />
</svg>
